<svg xmlns="http://www.w3.org/2000/svg" version="1.1" xmlns:xlink="http://www.w3.org/1999/xlink" width="512" height="512" x="0" y="0" viewBox="0 0 24 24" style="enable-background:new 0 0 512 512" xml:space="preserve" class=""><g><path d="M19.66 17.859 16 21.524v-1.267c0-1.684.714-2.4 2.4-2.4z" fill="#ffffff" opacity="1" data-original="#000000" class=""></path><path d="M17.9 4.766v.469a1.907 1.907 0 0 1-3.814 0v-.693h-4.4v.693a1.9 1.9 0 1 1-3.8 0V4.83c-1.77.533-2.675 1.907-2.675 5.47v6.574c0 4.08.777 5.785 5.593 5.785H14.4v-2.4c0-2.579 1.417-4 3.995-4h2.4V10.3c-.006-3.7-.975-5.044-2.895-5.534zM12 16.794H6.673a.8.8 0 1 1 0-1.6H12a.8.8 0 0 1 0 1.6zm3.2-4.261H6.673a.8.8 0 0 1 0-1.6H15.2a.8.8 0 0 1 0 1.6z" fill="#ffffff" opacity="1" data-original="#000000" class=""></path><path d="M8.623 2.188v3.047a.89.89 0 0 1-.373.7.868.868 0 0 1-.469.139.835.835 0 0 1-.831-.842V2.188a.837.837 0 1 1 1.673 0zM16.837 2.188v3.047a.848.848 0 0 1-.259.607.809.809 0 0 1-.739.212.831.831 0 0 1-.686-.819V2.188A.844.844 0 0 1 16 1.346a.882.882 0 0 1 .577.234.851.851 0 0 1 .235.391.8.8 0 0 1 .025.217z" fill="#ffffff" opacity="1" data-original="#000000" class=""></path></g></svg>