<svg xmlns="http://www.w3.org/2000/svg" version="1.1" xmlns:xlink="http://www.w3.org/1999/xlink" width="512" height="512" x="0" y="0" viewBox="0 0 48 48" style="enable-background:new 0 0 512 512" xml:space="preserve" class=""><g><g data-name="Recycle Bin"><path d="M39 6h-9V5a3 3 0 0 0-3-3h-7a3 3 0 0 0-3 3v1H9a3 3 0 0 0-3 3v2a3 3 0 0 0 2.025 2.824l.854 27.332a4.977 4.977 0 0 0 5 4.844h20.244a4.977 4.977 0 0 0 5-4.844l.854-27.332A3 3 0 0 0 42 11V9a3 3 0 0 0-3-3zM19 5a1 1 0 0 1 1-1h7a1 1 0 0 1 1 1v1h-9zm18.122 36.094a2.987 2.987 0 0 1-3 2.906H13.877a2.987 2.987 0 0 1-3-2.906L10.032 14h27.936zM40 11a1 1 0 0 1-1 1H9a1 1 0 0 1-1-1V9a1 1 0 0 1 1-1h30a1 1 0 0 1 1 1z" fill="#ffffff" opacity="1" data-original="#000000"></path><path d="M24 19a1 1 0 0 0-1 1v18a1 1 0 0 0 2 0V20a1 1 0 0 0-1-1zM31.028 19a.972.972 0 0 0-1.028.972l-.5 18A1 1 0 0 0 30.472 39h.028a1 1 0 0 0 1-.972l.5-18A1 1 0 0 0 31.028 19zM16.972 19A1 1 0 0 0 16 20.028l.5 18a1 1 0 0 0 1 .972h.028a1 1 0 0 0 .972-1.028l-.5-18A1 1 0 0 0 16.972 19z" fill="#ffffff" opacity="1" data-original="#000000"></path></g></g></svg>