<svg xmlns="http://www.w3.org/2000/svg" version="1.1" xmlns:xlink="http://www.w3.org/1999/xlink" width="512" height="512" x="0" y="0" viewBox="0 0 24 24" style="enable-background:new 0 0 512 512" xml:space="preserve" class=""><g><path fill="#4a5565" fill-rule="evenodd" d="M1.264 6.666a.745.745 0 0 1 1.033.092C4.01 8.771 7.118 11.283 12 11.283c4.881 0 7.99-2.512 9.703-4.525a.745.745 0 0 1 1.033-.092.707.707 0 0 1 .094 1.01c-.528.621-1.183 1.29-1.972 1.933.042.046.079.099.109.157l1.955 3.826a.71.71 0 0 1-.328.963.741.741 0 0 1-.983-.321l-1.925-3.767a13.52 13.52 0 0 1-4.42 1.89l.875 4.285a.718.718 0 0 1-.575.844.733.733 0 0 1-.863-.563l-.882-4.314c-.58.07-1.188.108-1.821.108s-1.24-.038-1.821-.108l-.882 4.314a.733.733 0 0 1-.863.563.718.718 0 0 1-.575-.844l.876-4.286a13.483 13.483 0 0 1-3.757-1.48L2.32 14.344a.744.744 0 0 1-1.027.144.707.707 0 0 1-.146-1.005l2.608-3.402A15.022 15.022 0 0 1 1.17 7.676a.707.707 0 0 1 .094-1.01Z" clip-rule="evenodd" opacity="1" data-original="#000000" class=""></path></g></svg>