<svg id="line" viewBox="0 0 64 64" xmlns="http://www.w3.org/2000/svg"><path d="m51.68994 29.24988a.99942.99942 0 0 0 -1 1v26.752l-3.74121-2.80278a1.00048 1.00048 0 0 0 -1.19824 0l-4.75 3.55175-4.74121-3.55175a1.00195 1.00195 0 0 0 -1.19922 0l-4.73926 3.55078-4.73047-3.54981a1.00049 1.00049 0 0 0 -1.20019-.001l-4.74024 3.55178-4.34082-3.251c-.00262-.003.003-28.73157-.001-28.73432v-16.61136a5.10288 5.10288 0 0 0 -1.10822-3.15429h22.61996a1.00014 1.00014 0 0 0 -.00006-2h-26.66986a5.16089 5.16089 0 0 0 -5.14941 5.15429v34.26856a4.12023 4.12023 0 0 0 4.11523 4.11621h1.03809a1.00017 1.00017 0 0 0 -.00006-2h-1.038a2.11826 2.11826 0 0 1 -2.11523-2.11621v-34.26856a3.154 3.154 0 0 1 6.30762.00007c-.00635 6.28344.00463 40.39825.001 45.84564a1.00133 1.00133 0 0 0 .40039.80078l5.34082 4a1.002 1.002 0 0 0 1.19922 0l4.73926-3.55078 4.73047 3.5498a1.00049 1.00049 0 0 0 1.20019.001l4.74024-3.55176 4.74023 3.55176a1.00051 1.00051 0 0 0 1.19824 0l4.75-3.55176 4.74219 3.55176a1.00766 1.00766 0 0 0 1.59961-.80084v-28.74996a.99942.99942 0 0 0 -1.00006-1z"/><path d="m31.99951 14.99988h-13.54a1.00019 1.00019 0 0 0 .00006 2h13.54a1.00019 1.00019 0 0 0 -.00006-2z"/><path d="m36.03955 25.23035h-17.58008a1.00019 1.00019 0 0 0 .00006 2h17.58a1.0002 1.0002 0 0 0 .00002-2z"/><path d="m47.53857 35.46179h-29.07714a1.0002 1.0002 0 0 0 .00006 2h29.07708a1.0002 1.0002 0 0 0 0-2z"/><path d="m18.46143 45.69226a1.0002 1.0002 0 0 0 .00006 2h29.07708a1.0002 1.0002 0 0 0 0-2z"/><path d="m46.99951 4.00018a12.00952 12.00952 0 0 0 -12 12c.65454 15.92041 23.34784 15.91584 24-.00012a12.00949 12.00949 0 0 0 -12-11.99988zm0 22a10.01648 10.01648 0 0 1 -10-10c.56171-13.26794 19.44031-13.264 20 .00006a10.01647 10.01647 0 0 1 -10 9.99994z"/><path d="m48.439 20.99988h-.44042v-6.78516a.99943.99943 0 0 0 -1-1h-1.4395a1.00018 1.00018 0 0 0 .00006 2h.4394v5.78516h-.43946a1.00019 1.00019 0 0 0 .00006 2h2.87986a1.00018 1.00018 0 0 0 0-2z"/><path d="m48.2395 10.48016a1.48012 1.48012 0 0 0 -2.96-.00006 1.48012 1.48012 0 0 0 2.96.00006z"/></svg>