<svg xmlns="http://www.w3.org/2000/svg" version="1.1" xmlns:xlink="http://www.w3.org/1999/xlink" width="512" height="512" x="0" y="0" viewBox="0 0 32 32" style="enable-background:new 0 0 512 512" xml:space="preserve" class=""><g><g data-name="Layer 11"><path d="M24 11.57h-.53v-3.1a7.47 7.47 0 1 0-14.94 0v3.1H8a4 4 0 0 0-4 4V27a4 4 0 0 0 4 4h16a4 4 0 0 0 4-4V15.57a4 4 0 0 0-4-4zm-13.47-3.1a5.47 5.47 0 1 1 10.94 0v3.1H10.53zM26 27a2 2 0 0 1-2 2H8a2 2 0 0 1-2-2V15.57a2 2 0 0 1 2-2h16a2 2 0 0 1 2 2z" fill="#6a7282" opacity="1" data-original="#000000"></path><path d="M16 17.926a1.948 1.948 0 0 0-1.354 3.348v2.371a1 1 0 0 0 1 1h.708a1 1 0 0 0 1-1v-2.371A1.948 1.948 0 0 0 16 17.926z" fill="#6a7282" opacity="1" data-original="#000000"></path></g></g></svg>