<svg viewBox="0 0 1000 1000" xmlns="http://www.w3.org/2000/svg"><path d="m593.77 124.68c5-8.19 14.59-37.45 20.84-44.7 2.29-2.66 5-5.42 8.44-5.86a6.81 6.81 0 0 0 3.1-.68c1-.71 1.27-2 1.63-3.23 2-6.59 9.14-10.59 16-10.9s13.53 2.34 19.74 5.34c4.51 2.18 9.16 4.8 11.63 9.17s1.66 10.93-2.85 13.12c4.25 1.12 6.8 5.7 7.16 10.08s-1 8.71-1.89 13c-2.45 11.22-16.9 38-17.22 49.46-.12 4.54 14.17-5.91 11.91-2a27 27 0 0 1 -5.76 6.45c-5.52 4.95-11.81 9.91-19.22 10.3" fill="#1a1c3f"/><path d="m595.39 125.62c4.7-6.62 7.62-14.75 10.93-22.12s6.3-16.21 11.77-22.19a11.62 11.62 0 0 1 4.45-3.48c1.51-.52 3.06-.3 4.55-1 1.91-.89 2.68-2.18 3.56-4.06 1.3-2.8 1.93-5 4.53-6.92a16.43 16.43 0 0 1 8.63-3c7.14-.47 14.51 2.92 20.62 6.25 4.11 2.24 13.48 10.22 6.06 14.66a3.68 3.68 0 0 0 .87 6.65c9.87 3.54 1.9 22.1-.82 28.88-3.46 8.65-7.44 17.09-10.6 25.86-1.54 4.26-6.6 15.43-1.09 18.68 2.37 1.39 5.19.43 7.51-.51 1.31-.53 2.57-1.14 3.85-1.73a9.58 9.58 0 0 0 2-.92c.69-.85 3.09 1.7-1.71-.58l-1.83-2.37q1-4.38-1.19-.25c-.77.87-1.59 1.69-2.44 2.48-1.58 1.5-3.25 3-5 4.3-3.74 3-7.9 5.51-12.74 6-5.1.49-5.14 8.53 0 8 8.27-.8 14.71-5.08 20.85-10.43 2.91-2.54 11.64-9.38 7.12-14-2.8-2.84-7-.07-9.78 1.26-.51.24-3.69 1.16-3.9 1.58 1.91 3.31 2.83 4 2.73 2a9.61 9.61 0 0 1 .2-1.51 34.45 34.45 0 0 1 .9-3.9c3.32-12.13 9.22-23.41 13.53-35.19 4-10.92 8.88-29.52-5.67-34.68l.87 6.65c5.55-3.35 7.28-10.13 5.06-16.09-2.49-6.67-9.34-10.38-15.42-13.19-12.28-5.67-31.53-9-38.6 6.35-.78 1.69-.67 2.69-2.15 3.45-1.32.69-3.15.62-4.56 1.38a22.89 22.89 0 0 0 -6.76 6c-3.16 4-5.19 8.71-7.11 13.36-4.4 10.66-7.51 22-12.46 32.38a1.87 1.87 0 0 0 3.23 1.88z" fill="#1a1c3f"/><path d="m658.36 85.53c-5.49-6.73-14.26-11.85-15.36-20.47-.61-4.85 1.49-9.59 3.54-14l5.09-11c1.14-2.48 2.48-5.15 5-6.25 1.73-.77 3.72-.63 5.53-1.2 2.72-.86 4.66-3.2 6.84-5.05s5.26-3.31 7.82-2c1.75.87 2.94 2.9 4.88 3.13s3.62-1.57 5.45-2.46c2.83-1.37 6.34-.42 8.81 1.53s4.11 4.74 5.7 7.45c2.2 3.76 4.46 7.77 4.41 12.12a18.93 18.93 0 0 1 -2.07 7.57 42.75 42.75 0 0 1 -12.94 16" fill="#fff"/><path d="m665.48 94.78c-5.48-6.73-21.38-11.84-22.48-20.46-.61-4.86 1.49-9.6 3.54-14l5.09-11c1.14-2.48 2.48-5.15 5-6.25 1.73-.77 3.72-.63 5.53-1.2 2.72-.86 4.66-3.2 6.84-5s5.26-3.31 7.82-2c1.75.87 2.94 2.9 4.88 3.13s3.62-1.57 5.45-2.46c2.83-1.37 6.34-.42 8.81 1.54s4.11 4.73 5.7 7.44c2.2 3.77 4.46 7.77 4.41 12.12a18.93 18.93 0 0 1 -2.07 7.51 42.75 42.75 0 0 1 -12.94 16" fill="#f7cebf"/><g fill="#1a1c3f"><path d="m665 55.63.87-.65-2.16-1.65a61.5 61.5 0 0 1 2.29 6.08c.5 1.84.9 4 2.22 5.49 2.44 2.68 7.94 2.47 10.49.16a2.61 2.61 0 0 0 -1.14-4.34 10.94 10.94 0 0 0 -4 .14c-1.19.12-1.07.22-1.66-.51a7 7 0 0 1 -.71-2c-.87-2.49-1.67-5.49-3.76-7.25a2.28 2.28 0 0 0 -3.83 1.59l-.07.5.51-1.24-1.05 1.07c-1.26 1.27.46 3.72 2 2.57z"/><path d="m674.51 46.74c2.79 3.9 4 8 5.22 12.6.64 2.46 4.87 2 4.57-.62-.59-5.36-3.44-10.2-7.1-14.06-1.31-1.37-3.84.47-2.69 2.08z"/><path d="m686.53 43.22.42.15-1.13-.87a35.16 35.16 0 0 1 3 6c.7 2.1.92 4.3 1.82 6.33.75 1.71 3.91 1.35 4.18-.55.48-3.42-1-6.83-2.65-9.78-1.23-2.17-3.14-5.89-6.1-4.4-1.42.71-.88 2.67.41 3.13z"/><path d="m659.81 84.68c-2.89-3.91-6.41-7.2-9.52-10.91-5.18-6.17-5.25-12.35-2-19.62 1.3-2.94 2.71-5.83 4.07-8.74 1.13-2.4 2.21-6.15 4.23-8s5.56-1.45 8-2.65a25.84 25.84 0 0 0 5.41-4.15c1.66-1.45 2.74-2.44 5-1.95 1.49.32 1.84 1 3 1.66 1.87 1 3.41 1.69 5.59 1.19s3.83-2.58 6-2.77c3.88-.34 6.48 4 8.14 6.8 3.62 6.12 5.77 11.33 2.51 18.15a40.92 40.92 0 0 1 -12 14.5c-3.9 3 1.59 8.5 5.46 5.45a45.7 45.7 0 0 0 14.54-19.19c2.95-7.7.47-14.35-3.64-21.09-3.34-5.49-7.86-11.38-15-11.08-4 .18-5.85 3.4-9.72 1.67-2.65-1.18-4.2-2.45-7.34-1.71s-5.43 3-7.91 5.09c-3.35 2.84-7.29 2.22-10.75 4.56-2.35 1.6-3.65 4.16-4.85 6.65-2 4.2-3.92 8.46-5.79 12.72-2.89 6.59-4.72 13.56-1 20.19 3.5 6.28 10 10.23 14.88 15.26 1.29 1.32 3.78-.46 2.63-2z"/></g><path d="m604 464.75a669.64 669.64 0 0 0 -39 210.66c-.37 17-1 36.15-13.72 47.41-3.32 2.95-7.33 5.19-10 8.75s-3.3 9.24.13 12c2 1.63 4.77 1.83 7.35 1.95q36 1.73 72.15 2.26c6.32.09 13.45-.17 17.75-4.81 3.38-3.64 4-9 4.83-13.86 4.93-29.73 22.28-55.83 31.43-84.54 11.85-37.19 9.53-77.43 3.35-116" fill="#fff"/><path d="m622.17 464.75a669.65 669.65 0 0 0 -38.95 210.66c-.37 17-1 36.15-13.72 47.41-3.31 2.95-7.33 5.19-10 8.75s-3.3 9.24.14 12c2 1.63 4.77 1.83 7.34 1.95q36.06 1.73 72.15 2.26c6.32.09 13.45-.17 17.75-4.81 3.39-3.64 4-9 4.83-13.86 4.94-29.73 22.29-55.83 31.44-84.54 11.85-37.19 9.53-77.43 3.35-116" fill="#ef6348"/><path d="m847.61 308.15a320.54 320.54 0 0 1 16.47 147.76c-1.3 10.43-3.12 20.84-3.11 31.35 0 40.55 26.72 75.87 37.2 115 8.19 30.57 6.35 63.08 13.79 93.84 1.84 7.6 4.26 15.17 4.34 23s-2.64 16.18-9.07 20.63c-4.66 3.23-10.56 4-16.21 4.53-20.28 2-40.67 2.75-61 3.51-6.69.25-15.38-.82-16-8.34a10.42 10.42 0 0 1 1.62-6.35l2.11-3.41a42.31 42.31 0 0 0 .18-44.45 443 443 0 0 1 -65.51-235.79c.4-34.81 5.43-70.92 24.45-100.09" fill="#fff"/><path d="m854.91 295.44c27.22 52.56 38.09 110.83 31.92 160.47-1.3 10.43-3.12 20.84-3.11 31.35 0 40.55 26.72 75.87 37.21 115 8.18 30.57 6.35 63.08 13.79 93.84 1.84 7.6 4.25 15.17 4.33 23s-2.63 16.18-9.06 20.63c-4.67 3.23-10.57 4-16.21 4.53-20.29 2-40.67 2.75-61 3.51-6.69.25-15.37-.82-16-8.34a10.48 10.48 0 0 1 1.61-6.35l2.12-3.41a42.31 42.31 0 0 0 .17-44.45 443.12 443.12 0 0 1 -65.51-235.79c.4-34.81 5.44-70.92 24.45-100.09" fill="#34c6a0"/><path d="m601.9 464.18a674.86 674.86 0 0 0 -32.77 129.69q-4.77 32.1-6.47 64.56c-.91 17.66 1.67 39.35-7.81 55.18-4.5 7.52-14 10.78-17.61 18.7-3 6.62-.52 14.11 6.83 15.93 4.59 1.13 9.8.8 14.48 1 5.85.26 11.7.52 17.55.71q17.55.59 35.1.85c8.36.13 18.73 1.59 26.29-2.94s8-13.46 9.61-21.34c4.11-20.58 13.82-39.34 22.09-58.45 9.32-21.57 15.57-43.53 17.15-67.05a277.92 277.92 0 0 0 -4.89-73.26c-.72-3.53-6.79-2.8-6.37.86 2.33 20.45 5.19 40.64 4.86 61.28-.33 20.17-3.15 40.56-9.87 59.64-6.28 17.82-15.33 34.51-22 52.18a145.73 145.73 0 0 0 -7.6 27.34c-.66 3.94-1.11 8.66-3.94 11.76-3.46 3.79-9.36 3.86-14.1 3.86-21 0-42-1.06-62.9-1.91-4.14-.17-10.63.72-14.5-.93-7.47-3.18 1.22-11.06 4.4-13.52 5.89-4.56 10.4-9.66 13.33-16.59 6.52-15.41 5-33.21 5.64-49.55q1.15-30.63 5.12-61.08a672.21 672.21 0 0 1 32.48-135.78c.92-2.6-3.19-3.7-4.12-1.14z" fill="#1a1c3f"/><path d="m845.81 308.64a334.23 334.23 0 0 1 17.55 96.43 318.41 318.41 0 0 1 -2.31 49c-1.95 15.5-4.53 30.71-2.48 46.35 3.81 29.2 18.89 55.12 29.44 82.17a193.71 193.71 0 0 1 11.61 45.25c2.12 16 3 32.17 5.16 48.19a216.45 216.45 0 0 0 4.48 23.67c1.91 7.6 4.32 15.47 3.31 23.39s-5.33 14.23-13.25 16.38c-7.67 2.09-16.14 2.12-24 2.69-8.53.62-17.06 1.08-25.6 1.47-7.65.35-15.53 1.2-23.18.81-6.72-.35-11.59-3.46-7.47-10.69 2.65-4.64 5.19-9.14 6.59-14.36 3.7-13.8.22-26.74-6.95-38.68a442.74 442.74 0 0 1 -62.81-221.57c-.34-29.72 1.92-60.39 13.43-88.12a134 134 0 0 1 10.43-19.93c2.35-3.72-3.49-7.08-5.87-3.43-16.91 25.88-23 57-24.57 87.43a418 418 0 0 0 6.3 95.8 451.23 451.23 0 0 0 48.55 136.92c7.68 13.94 18.47 26.79 16.6 43.66-.76 6.89-3.59 12.83-7.16 18.65-2.64 4.31-4.23 9.52-1.56 14.27 2.44 4.34 7.45 6 12.12 6.55 7.39.86 15.16-.1 22.57-.4 17.16-.69 35.26-.51 52.16-3.83 13.65-2.69 21-14.06 20.9-27.58 0-8.16-2.58-16.06-4.48-23.92a225.14 225.14 0 0 1 -4.55-26.57c-1.95-16.66-2.91-33.43-5.65-50-5.24-31.73-21.17-59.14-32.12-89-5.43-14.81-9.23-30.25-8.66-46.12.61-17 4.12-33.72 4.88-50.71a313.16 313.16 0 0 0 -11.57-100.59c-2.41-8.32-5.18-16.51-8.24-24.61-.84-2.21-4.38-1.31-3.6 1z" fill="#1a1c3f"/><path d="m705.68 188.05a361.43 361.43 0 0 0 -25.84-88.65c-2.33-5.32-4.87-11-4.34-16.86.76-8.33 7.34-13.76 13.54-17.57a131.72 131.72 0 0 1 34.63-15c5.15-1.39 10.81-2.38 15.68.39 4.1 2.34 6.94 7 9.34 11.56 18.06 34.67 20.52 76.87 21.11 117" fill="#fff"/><path d="m717.35 188.16a361.72 361.72 0 0 0 -25.83-88.65c-2.34-5.32-4.87-11-4.34-16.86.75-8.33 7.33-13.77 13.53-17.58a131.36 131.36 0 0 1 34.63-15c5.16-1.39 10.81-2.39 15.69.39 4.09 2.33 6.94 7 9.33 11.56 18.06 34.67 20.52 76.87 21.11 117" fill="#f7cebf"/><path d="m686.61 166a16.78 16.78 0 0 1 12.16-9.86c-2.09 9.31 2.05 19.42 9.34 25.59s17.28 8.61 26.8 7.81c11-.93 21.15-5.79 30.75-11.14 1.75-1 3.57-2 4.52-3.82s.85-3.8.75-5.76l-1.07-19.88a5.11 5.11 0 0 1 .68-3.52 4.88 4.88 0 0 1 3.38-1.33c9.07-1 19.69 1.05 24.19 9 4.07 7.16 1.56 16.13-1.37 23.83a7.25 7.25 0 0 0 -.71 4 6.5 6.5 0 0 0 1.66 2.76c4.74 5.31 11.12 8.83 16.83 13.07 20.14 15 36 62.2 34.91 87.27-.11 2.45-.3 5.1 1 7.18 1.11 1.75 3.08 2.76 4.46 4.3 4.46 5 1.25 12.85-2.43 18.44-14.06 21.34-37.75 17.89-62.14 25.49s-50.6 3.76-75.61-1.06c-12.83-2.47-25.65-5.19-38-9.51-11.16-3.91-22.52-9.7-28.34-20-4.82-8.5-6.2-20.24-15.06-24.36" fill="#1a1c3f"/><path d="m688.06 166.8a16.19 16.19 0 0 1 11.37-8.32l-3.06-3c-4.52 19 12.22 34.44 29.79 36.78 9.86 1.32 19.54-1.14 28.55-5 7.26-3.13 18.87-6.85 19.23-16.18.21-5.65-.58-11.5-.91-17.14-.09-1.52-.55-3.49-.29-5 .36-2 .65-1.76 2.55-2.13a21.17 21.17 0 0 1 7.61.32c4.42.82 9 2.68 11.62 6.47 3.68 5.23 2.36 12 .58 17.65-1.16 3.71-3.5 7.48-2 11.4 1.66 4.47 6.54 7.77 10.25 10.5 6.85 5 13.23 9.41 18.25 16.4 9.61 13.38 15.74 29.24 19.83 45.11a114.73 114.73 0 0 1 3.84 23.19c.17 3.52-.34 7.14.08 10.62a11.43 11.43 0 0 0 2.18 5.68c1.56 2.13 4.51 3.35 5.24 6 1.18 4.26-2.44 9.65-4.79 12.9a34.29 34.29 0 0 1 -10.68 9.59c-7.3 4.21-15.83 5.78-24 7.26-9.65 1.74-19 4-28.46 6.4-11 2.76-22.48 3.18-33.81 2.45-13-.83-25.86-3.23-38.62-5.77-12.57-2.5-25.24-5.28-37.22-9.9-10.54-4.07-19.85-10.13-24.57-20.72-3.67-8.24-6.25-17.39-15-21.63-5-2.42-9.36 4.76-4.4 7.52 7.53 4.2 8.83 14.8 12.48 21.91 4.37 8.5 12.14 14.56 20.58 18.72 20.48 10.1 44.87 14 67.29 17.22 11.84 1.68 23.82 2.77 35.79 2 11-.73 21-3.84 31.67-6.41 17.07-4.13 36.24-4.62 49.94-17 6.42-5.8 13-15.24 12.33-24.32-.35-4.58-2.75-6.81-5.69-9.89-3.08-3.24-1.78-8.37-2-12.61-.86-16.62-5.67-33.17-12.17-48.41-6.23-14.6-14.37-28.62-27.71-37.71-4.23-2.87-9.95-5.66-13-9.91-1.82-2.58-.41-4.49.47-7.15a47.9 47.9 0 0 0 2.16-9.07c1.1-8.82-2-17.38-10.27-21.53a31.76 31.76 0 0 0 -13.57-3c-3.59-.1-9.08-.47-11.42 2.91-2.84 4.11-.73 12.26-.5 16.89.15 3.12.54 6.31.44 9.43-.13 4.48-5 6.21-8.45 8-11.64 6-25 10.7-38.13 7.2-13-3.46-22.17-15-20.27-28.7.25-1.8-1-3.62-3-3.06a18.84 18.84 0 0 0 -13.19 11.75c-.7 1.79 2.15 2.91 3.06 1.29z" fill="#1a1c3f"/><path d="m740.83 86.09a74.27 74.27 0 0 1 -50-14.1c.41 9.1.45 19.27-5.77 25.93a30.28 30.28 0 0 0 -3.68 4c-1 1.54 1.09 5 2.14 6.49-4.36-5.87-15.31-9.23-18.91-15.61s-.7-14.65 3.39-20.8c8.06-12 20.24-20.54 32.63-28 4.22-2.52 8.56-5 13.34-6.12s10.1-.84 14.2 1.86a5.81 5.81 0 0 0 2.43 1.26 6 6 0 0 0 2.57-.63c5.13-1.86 10.81.52 15.35 3.54a54 54 0 0 1 21.72 29.59 21.67 21.67 0 0 1 1 8.09c-.33 3.28-1.84 6.3-3.07 9.35a60.73 60.73 0 0 0 -4 15.62c-2.94-1.25-3.58-5.1-3.52-8.29s.19-6.86-2.18-9c-2.85-2.58-7.76-1-10 2.1s-2.52 7.21-2.73 11a41.85 41.85 0 0 1 -10.43-15.29" fill="#ef6348"/><path d="m748.69 61.92c-2.4-4.6-5.24-9.22-9.34-11.56-4.87-2.77-10.52-1.78-15.68-.39a131.72 131.72 0 0 0 -34.67 15.03c-6.2 3.81-12.78 9.24-13.54 17.57-.53 5.86 2 11.54 4.34 16.86.46 1 .9 2.09 1.34 3.13a1.73 1.73 0 0 1 .22-.6 30.28 30.28 0 0 1 3.68-4c6.22-6.66 6.18-16.83 5.77-25.93a74.27 74.27 0 0 0 50 14.1l-5.46 1a41.85 41.85 0 0 0 10.43 15.29c.21-3.84.5-7.91 2.73-11s7.14-4.68 10-2.1c2.37 2.15 2.23 5.82 2.18 9-.05 3 .51 6.56 3 8-3.1-15.6-7.81-30.6-15-44.4z" fill="#eab642"/><path d="m707.63 187.51a364.17 364.17 0 0 0 -14.15-61.51c-3-9.29-6.66-18.39-10.52-27.36-2.22-5.17-5.06-11-4.12-16.76.75-4.65 4-8.34 7.55-11.17 7.61-6 17.2-10.38 26.22-13.78 8.67-3.28 21.59-9.14 28.84-.54 6.16 7.3 9.74 17.81 12.79 26.72a195.11 195.11 0 0 1 7.21 28.36c4 22.23 4.83 44.91 5.18 67.45.06 4.07 6.4 4.09 6.34 0-.34-22.55-1.23-45.17-5.06-67.43a194.55 194.55 0 0 0 -8-31.7c-3.33-9.45-7.21-20.28-13.87-27.95s-15.86-7.05-24.9-4.5a134 134 0 0 0 -31.34 13.43c-7.63 4.44-15.4 10.23-17.22 19.38-2.08 10.46 4.71 20.94 8.48 30.24a388.33 388.33 0 0 1 22.67 78.2c.46 2.58 4.26 1.44 3.9-1.08z" fill="#1a1c3f"/><path d="m692.54 622.43a1590.87 1590.87 0 0 1 -453-32.58c-23.85-5.21-49.75-12.4-63.61-32.5-10-14.41-11.69-32.77-13-50.24q-3.25-44-5.38-88c-1.15-23.82-2-48.08 3.42-71.48 11.8-50.46 51-89.21 88.53-125 59.93-57.19 120.83-115.1 193.87-154.17 24-12.83 50.74-23.77 77.68-20 17.46 2.44 33.48 10.89 48.53 20.06 64.93 39.57 118.95 94.61 169 151.83 22.15 25.3 43.88 51.46 58.8 81.6 41.33 83.5 17 139.83 6.88 258.08-.81 9.48-2.93 19.22-7.18 27.85-15.48 31.46-65.64 33.7-100.44 34.82" fill="#fff"/><path d="m698.46 631.83a1502.5 1502.5 0 0 1 -432.08-31.38c-22.75-5-47.45-12-60.67-31.31-9.49-13.89-11.15-31.59-12.38-48.42q-3.11-42.35-5.13-84.78c-1.1-22.95-1.95-46.33 3.26-68.87 11.26-48.63 48.69-86 84.45-120.44 57.15-55.1 115.24-110.9 184.91-148.54 22.87-12.36 48.39-22.9 74.09-19.28 16.65 2.35 31.93 10.49 46.29 19.33 61.93 38.12 113.45 91.16 161.21 146.29 21.12 24.38 41.86 49.58 56.08 78.62 39.43 80.45 16.18 134.73 6.57 248.67-.77 9.13-2.8 18.51-6.85 26.83-14.77 30.31-62.61 32.45-95.81 33.55" fill="#eab642"/><path d="m374.55 432.79a1604.24 1604.24 0 0 0 394.25-68c10-3.05 20-6.21 30.06-9.13 2-.59 4.46-1.09 6.07.29 2.23 1.92.94 5.54-.57 8.07-12.23 20.48-28.63 38.09-44.9 55.52-29.67 31.8-59.61 63.83-95.05 89-23.12 16.44-48.31 29.77-74.06 41.69a803.39 803.39 0 0 1 -206.35 63.54" fill="#1a1c3f"/><path d="m374.55 434.89c62.17-.37 124.67-8.12 186-18.08a1607.33 1607.33 0 0 0 183.46-41c15.53-4.44 30.95-9.25 46.42-13.91l5.64-1.69c.93-.27 4.09-1.77 5-1.43 2.77 1-.69 4.72-1.77 6.41a213.13 213.13 0 0 1 -14.1 19.43c-18.43 22.82-39.34 44-59.92 64.87-20.94 21.22-43 41.57-67.66 58.42-25 17.05-52.12 30.69-79.72 42.93a799.65 799.65 0 0 1 -195.28 58c-6.48 1.06-3.75 11 2.72 9.88a812.33 812.33 0 0 0 180.27-52.45c28.94-12.21 57.52-25.77 84.13-42.52 26-16.4 49.42-36.38 71.24-58s43.09-44 62.91-67.28c4.85-5.7 9.51-11.56 13.88-17.63 3.9-5.44 8.76-11.42 11.09-17.75 1.68-4.57.67-10-4.63-11.31-2.44-.62-4.91.06-7.27.73-4.09 1.16-8.15 2.43-12.22 3.67-62.59 19.17-125.74 35.68-190.13 47.74q-48.61 9.08-97.69 15.19c-32.43 4-64.92 6.54-97.45 9.44-8.31.73-16.61 1.43-24.92 2.15-2.64.23-2.74 4.2 0 4.19z" fill="#1a1c3f"/><path d="m601.4 278.23a154.46 154.46 0 0 0 -25.12-24.37c-3.71-2.86-9-5.59-12.75-2.81-3.06 2.26-3 7.12-.93 10.3s5.58 5.08 8.94 6.85c-4.36-5.35-11.31-8.1-18.19-8.67s-13.77.81-20.46 2.49l-.15 8.56a3 3 0 0 0 .47 2 2.93 2.93 0 0 0 1.58.78l16.58 4.34-9.73.82c-2.74.23-5.56.49-8 1.76s-4.42 3.84-4.14 6.58c.42 4.07 5.28 6.12 9.37 6s8.23-1.4 12.2-.42a31.8 31.8 0 0 0 -14.38 12.06 8.87 8.87 0 0 0 -1.8 5.42c.28 3.11 3.19 5.21 5.85 6.81a18.09 18.09 0 0 0 7 2.9c2.52.3 5.36-.64 6.58-2.86s0-5.64-2.56-5.94a46.63 46.63 0 0 0 40.73 5.7c.52-.18 1.21-.32 1.52.14s-.79.91-.67.37" fill="#fff"/><path d="m613 282.81a154.11 154.11 0 0 0 -25.13-24.37c-3.71-2.86-9-5.59-12.74-2.81-3.06 2.26-3 7.11-.94 10.29s5.59 5.09 9 6.86c-4.37-5.35-11.32-8.1-18.2-8.67s-13.76.8-20.46 2.48l-.14 8.56a2.24 2.24 0 0 0 2.05 2.83l16.58 4.34-9.73.82c-2.75.23-5.57.49-8 1.76s-4.41 3.84-4.13 6.58c.42 4.07 5.28 6.12 9.36 6s8.24-1.4 12.21-.43a31.91 31.91 0 0 0 -14.39 12.07 8.91 8.91 0 0 0 -1.8 5.42c.28 3.1 3.19 5.21 5.86 6.81a18.11 18.11 0 0 0 7 2.9c2.52.3 5.36-.64 6.58-2.87s0-5.63-2.55-5.93a46.61 46.61 0 0 0 40.57 5.73c.52-.17 1.21-.31 1.52.15s-.78.91-.67.37" fill="#f7cebf"/><path d="m603 277.31a129.65 129.65 0 0 0 -16.51-18.83c-4.87-4.59-11.58-11.42-18.78-11.72-6.24-.26-10.34 5-9.63 11 .77 6.61 6.56 10.22 11.94 13.09a3.07 3.07 0 0 0 3.7-4.81c-10.62-12.2-27.47-10.59-41.68-7.18a3.33 3.33 0 0 0 -2.41 3.16c-.08 4-1.73 11 2.31 13.67 2.11 1.39 5.12 1.67 7.53 2.3l11.06 2.87.86-6.36c-7.94.69-25.82 0-25.06 12.4.24 3.92 3.26 6.85 6.77 8.19 5.7 2.17 11.37-.5 17.16.47l-.76-5.77c-6.83 3.08-14 8.66-16.87 15.8-2.53 6.2 1.42 10.81 6.53 14 4.92 3 12 5.42 16.69.57a7.46 7.46 0 0 0 -3.22-12.32c-3.62-1.12-5.42 3.93-2.48 5.89a52.41 52.41 0 0 0 21.63 8.27 49.48 49.48 0 0 0 11.47.35 54.14 54.14 0 0 0 5.67-.82c1-.2 2.05-.44 3.07-.72 1.68-.36 2-.52 1-.47l-2.72-3.56v.42l1.81-3.17-.4.24 4.39.57-.21-.23c-2.77-2.92-7.89.9-5.64 4.35l.17.26a3.67 3.67 0 0 0 4.08 1.66 4.23 4.23 0 0 0 3.09-3.12 3.81 3.81 0 0 0 -1.7-4.18c-2.62-1.47-4.73-.46-7.43.3a43.08 43.08 0 0 1 -12.27 1.54 42.22 42.22 0 0 1 -22.79-7.26l-2.47 5.84c1 .52.81 1-.64 1.53a2.29 2.29 0 0 1 -3.17.81 12.12 12.12 0 0 1 -3.42-1.5c-3.4-1.82-6.65-3.63-4.64-8.05 2.44-5.37 8.47-9.25 13.64-11.56 2.4-1.07 1.83-5.32-.76-5.76a29.5 29.5 0 0 0 -8.65-.1c-2.71.3-6.39 1.06-8.84-.65-5.2-3.63 2.8-6.46 5.57-6.8 3.77-.47 7.6-.64 11.38-.95 3.48-.29 4.59-5.38.87-6.36l-13.82-3.61c-2.57-.68-2.74.33-2.37-2.11a54 54 0 0 0 .11-6.85l-2.4 3.15c12-3 26.42-5.15 35.62 5.2l3.71-4.81c-3.22-1.71-9.23-4.61-8.78-9.07.42-4.05 5.11-3.25 7.73-1.78a47.93 47.93 0 0 1 6.88 5.14 240.34 240.34 0 0 1 21.19 19.67c1.4 1.46 4.1-.49 2.87-2.21z" fill="#1a1c3f"/><path d="m692.54 620.22a1595 1595 0 0 1 -220.9-.57 1586.42 1586.42 0 0 1 -219.64-31.4c-27.08-5.83-61.46-11.64-75.69-38.68-7.57-14.4-8.3-31.46-9.52-47.34q-2.13-27.86-3.8-55.72c-2.13-35.41-6.48-72.72 4.14-107.2 9.11-29.57 27.9-55 48.58-77.53 21.81-23.77 45.8-45.66 69.33-67.71 24.65-23.09 49.79-45.72 76.32-66.66s54.72-40.26 84.67-56.18c15.52-8.23 31.84-15.53 49.24-18.55 17.82-3.09 35.21 0 51.52 7.56 15.12 7 29.29 16.33 43 25.75 13.92 9.57 27.35 19.85 40.32 30.67 25.64 21.37 49.52 44.77 72.34 69.1 23 24.58 46.11 49.73 66.18 76.84 17.76 24 32.27 50.4 40.54 79.19 13.74 47.83 6.06 97.39-.27 145.75-2 15.67-4 31.35-5.72 47.07-1.83 17.09-1.36 35.75-9.12 51.48-11 22.2-39.21 28.23-61.54 30.86-11.9 1.41-23.88 1.92-35.85 2.31-4.42.14-4.43 7 0 6.88 25.05-.81 51.57-1.53 75-11.55 10.45-4.47 20-11.17 26.25-20.86 9.08-14.17 9.65-31.35 11.24-47.56 3.06-31.09 7.7-62 11.38-93 2.93-24.61 5.07-49.5 2.87-74.27a218.23 218.23 0 0 0 -20-72.83c-14.55-31.33-36.2-58.38-58.72-84.29-45.21-52-93.51-102.33-150.47-141.63-28-19.31-59.08-39.65-94.62-35.49-34.3 4-66.24 23.83-94.64 42.27-58.63 38.07-109.48 86.62-159.84 134.74-23.17 22.14-46.34 44.88-64.06 71.77a174.46 174.46 0 0 0 -20.45 41.56c-5.49 16.79-7.39 34.39-7.68 52-.31 19.18 1 38.4 1.95 57.55s2.12 38.45 3.48 57.68c1.1 16 1.95 32.45 8.37 47.35 5.88 13.66 16.62 24.12 29.76 30.89 12.91 6.64 27.09 10.26 41.21 13.31q27.84 6 55.92 11 56.34 10 113.31 15.91a1592.5 1592.5 0 0 0 229.45 7.26q28.11-1.14 56.16-3.28c2.81-.21 2.85-4.61 0-4.42z" fill="#1a1c3f"/><path d="m809.33 330.23c-2.75 14.84-8.1 28.67-18.6 39.35-9.48 9.64-22.08 15.44-34.39 21l-215.59 98c-13.47 6.12-27.64 12.39-42.41 11.46-11.38-.72-22-5.65-32.3-10.52q-129.5-61.26-256.85-126.93c-18.71-9.65-41.15-33.34-33.51-53a152.12 152.12 0 0 0 -14.68 38.04c-5.47 23.4-4.57 47.66-3.42 71.48q2.13 44 5.38 88c1.29 17.47 3 35.83 13 50.24 13.86 20.1 39.76 27.29 63.61 32.5a1590.87 1590.87 0 0 0 453 32.58l4.14.27c34.8-1.12 85-3.36 100.44-34.82 4.25-8.63 6.37-18.37 7.18-27.85 8.87-104.44 28.92-160.58 5-229.8z" fill="#fff"/><path d="m820.66 424.45c.87-2.93 4.67-38.48.74-32.05-7 11.54-22.08 15.44-34.38 21l-215.6 98c-13.42 6.18-27.64 12.45-42.42 11.52-11.37-.72-22-5.65-32.3-10.52-86.32-40.84-164.78-86.57-249.7-130.35-18.71-9.65-45.21-18.85-47.54-27.61-6.47 11.92-4.7 2.59-7.83 16-5.48 23.4-4.58 47.66-3.43 71.48q2.13 44 5.38 88c1.29 17.47 3 35.83 13 50.24 13.87 20.1 39.76 27.29 63.61 32.5a1590.89 1590.89 0 0 0 453 32.58l4.14.27c34.8-1.12 85-3.36 100.45-34.82 4.25-8.63 6.37-18.37 7.17-27.85 8.92-104.43-5.4-54.84-14.29-158.39z" fill="#ddede8"/><path d="m806.18 329.36c-2 10.59-5.29 21-11.33 30-6.2 9.3-15.13 15.84-24.87 21.07-21.84 11.72-45.26 21-67.83 31.25l-140.4 63.84c-11.62 5.28-23.13 11-35 15.65-11.08 4.33-22.74 7.22-34.62 4.8-12.36-2.52-23.77-8.9-35.07-14.26s-22.45-10.71-33.66-16.06q-68.55-32.92-136.49-67.08c-25.41-12.78-50.93-25.43-76.07-38.74-16-8.47-39.36-28.67-32-49.27 1.25-3.5-4.24-5.76-6-2.52a158.17 158.17 0 0 0 -18.25 58.22c-2.34 21.76-.81 43.78.33 65.57q1.76 33.75 4.17 67.46c1.34 18.73 2 38.77 11.4 55.56 17.79 31.76 60.75 36.86 92.83 43.34q66 13.34 133 21a1591.81 1591.81 0 0 0 268.14 8.22c9.79-.52 19.92-2.06 29.7-1.65 6.18.25 12.4-.16 18.58-.49 15.24-.81 30.66-2.27 45.41-6.31 13-3.56 26.18-9.38 35.19-19.71 12.32-14.1 13.56-33 15.26-50.75 3.52-36.74 9.5-73.19 13.15-109.91 2.92-29.29 3.45-58.86-3.1-87.72a212 212 0 0 0 -6.17-21.56c-1.36-4-7.68-2.26-6.31 1.74 20.13 58.88 7.4 120.2 0 180.17q-1.79 14.46-3.29 28.93c-1.08 10.44-1.33 21.18-3.64 31.44-3.59 16-12 27.7-26.6 35-24 12-53.87 12.73-80.12 12.48-10.56-.1-21.38 1.42-31.94 2s-21.31 1-32 1.33q-32.46 1-65 .69-64.48-.61-128.77-6.46t-127.81-16.86q-32-5.58-63.76-12.45c-16.44-3.57-33.41-7.42-47.91-16.34-15.93-9.81-23.85-25.26-26.92-43.33-3.43-20.19-3.73-41.18-5-61.59-1.34-21.6-2.73-43.24-3.31-64.87-.56-20.95.37-42 6.61-62.18a156 156 0 0 1 11.78-27.67l-6-2.52c-6.49 18.17 7.73 36.39 21 47.26 8.5 7 18.26 11.59 28 16.58q17.9 9.19 35.83 18.29 72.19 36.62 145.09 71.83c23.82 11.51 47.51 23.73 71.84 34.12 10.79 4.61 21.94 7.57 33.74 6.11 11.54-1.43 22.27-6.07 32.78-10.81 49.51-22.36 98.91-45 148.37-67.46 27.25-12.39 55.24-23.82 81.88-37.49 10.91-5.6 20.87-12.64 28.13-22.66 7.15-9.87 11-21.63 13.33-33.49.8-4.1-5.48-5.88-6.3-1.74z" fill="#1a1c3f"/><path d="m225.8 479.82a131.29 131.29 0 0 1 -37-54.7c-3.31-9.39-5.56-19.25-5.58-29.21 0-19.61 8.67-38.54 21.26-53.58s28.88-26.55 45.78-36.51c3.59-2.12 7.26-4.21 10.23-7.13 6.49-6.39 9.9-16.81 18.67-19.27a25.32 25.32 0 0 1 8.56-.41l8.55.55a8.21 8.21 0 0 1 4.59 1.24c2.49 1.95 1.76 6.2-.62 8.28s-5.72 2.59-8.85 3c4 .82 8.2 1.7 11.49 4.16s5.45 6.95 3.9 10.76c-1.19 2.93-4.27 4.74-7.39 5.28s-6.3 0-9.41-.52c1.49 6.11 2.89 12.94-.28 18.36-2.72 4.65-8.05 6.94-12.67 9.7-15.33 9.19-24.68 25.54-33.19 41.25-.83 1.53-1.68 3.33-1 4.94a6 6 0 0 0 2.34 2.38l37.38 25.71" fill="#fff"/><path d="m230 496a131.38 131.38 0 0 1 -37-54.7c-3.31-9.39-5.56-19.25-5.57-29.21 0-19.61 8.66-38.55 21.25-53.58s28.88-26.55 45.78-36.52c3.59-2.11 7.26-4.2 10.23-7.12 6.5-6.39 9.91-16.81 18.67-19.27a25.38 25.38 0 0 1 8.57-.41l8.54.55a8.24 8.24 0 0 1 4.6 1.24c2.49 1.95 1.75 6.2-.63 8.28s-5.71 2.58-8.85 3c4 .82 8.2 1.7 11.5 4.16s5.44 6.95 3.9 10.76c-1.2 2.92-4.28 4.74-7.39 5.27s-6.3 0-9.42-.51c1.5 6.11 2.9 12.94-.28 18.36-2.72 4.65-8.05 6.94-12.66 9.7-15.34 9.19-24.68 25.53-33.2 41.25-.82 1.53-1.67 3.33-1 4.94a6 6 0 0 0 2.34 2.38l37.38 25.71" fill="#f7cebf"/><path d="m227.2 478.42c-24-25.09-47.21-61.82-38.47-98.11 4.33-18 15.09-33.52 28.4-46.06a178.42 178.42 0 0 1 22.43-17.53c6.84-4.63 14.55-8.37 20.94-13.61s9.1-13.45 15.37-18.56c4.16-3.39 9.37-2.86 14.41-2.55l3.41.23c1.76.12 5.21.84 5.68 3.07.61 2.9-7.29 3.79-8.76 4-2.85.39-2.66 5 0 5.57 4.65 1 10.76 2 13 6.77 3.88 8.32-8.19 8-12.85 7.24a3 3 0 0 0 -3.68 3.68c1.49 6.37 3.05 13.69-2.35 18.68-4.17 3.86-9.93 5.94-14.47 9.38-9.05 6.84-15.9 16.07-21.75 25.68-2.91 4.78-6.39 9.9-8.39 15.14-1.82 4.76.47 7.65 4.23 10.28 12.12 8.47 24.38 16.77 36.57 25.15 3.41 2.34 6.62-3.21 3.23-5.54l-34.15-23.48c-1.7-1.17-3.06-1.54-3.34-3.7-.23-1.75.62-2.78 1.42-4.24 1.41-2.56 2.83-5.11 4.3-7.63a130.15 130.15 0 0 1 9.62-14.54 69.08 69.08 0 0 1 10.83-11.19c4.36-3.52 9.51-5.71 14-9 9.09-6.72 8.47-16.6 6-26.57l-3.68 3.67c7.89 1.24 20.18 1.11 21-9.59.76-10.15-10-14.11-18-15.75v5.57c4.17-.6 8.75-1.56 11.36-5.22 1.9-2.65 2.45-6.63.59-9.46-2.28-3.47-6.73-3.39-10.41-3.63-5.41-.34-11.3-1.47-16.56.36-8 2.79-11.67 10.93-16.78 17-6.74 8-18 12.23-26.61 18-18.43 12.39-35.41 28.13-45.36 48.27-10.12 20.52-11 42.55-3.65 64.12 7.68 22.39 21.11 42.88 40.07 57.22 1.84 1.39 3.9-1.55 2.4-3.11z" fill="#1a1c3f"/><path d="m291.3 421.29a127.36 127.36 0 0 0 -28-7.24 12.72 12.72 0 0 0 -12.71 3.75 89.61 89.61 0 0 0 -26.96 42.2c-2.72 9.31-3.57 20.5 2.72 27.73 2.74 3.16 6.51 5.13 10.22 6.94a265.16 265.16 0 0 0 26.52 11.16" fill="#ef6348"/><path d="m292.16 419.81a126.83 126.83 0 0 0 -22.76-7.71c-7-1.58-13.43-2.66-19.46 1.93-11.34 8.62-20.15 21.55-25.71 34.53-4.88 11.39-9.4 26.33-2.82 38 3.51 6.21 9.85 9.35 16.06 12.29 7.53 3.58 16.55 8.68 24.82 9.91 3.21.48 5.45-3.6 2.33-5.51-5.86-3.58-13.1-5.39-19.38-8.22-5.46-2.47-12.56-4.9-16.51-9.67-7.87-9.51-2.43-25 1.92-34.87a86.51 86.51 0 0 1 20.49-28.75c2.57-2.37 5-4.69 8.67-4.86 3.53-.16 7.26.72 10.74 1.26a133.29 133.29 0 0 1 20.29 4.81c1.81.58 3.12-2.34 1.32-3.13z" fill="#ef6348"/><path d="m725.08 592.32c-69.31-20.59-134.52-52.67-200.56-81.61-18.15-8-36.46-16.76-55.3-23-3.48-1.14-6 4.45-2.53 6 16.45 7.52 33.57 13.76 50.18 21s33.22 14.65 49.81 22c32.47 14.45 65.1 28.94 98.63 40.81 19.35 6.85 39 13 58.82 18.21a1.79 1.79 0 0 0 1-3.45z" fill="#1a1c3f"/><path d="m394.76 528.71c21.37 2.31 44.78 4.15 62.6-7.88 8.95-6 15.47-15 21.48-24q9.21-13.72 17.45-28.06c5.43-9.43 11.24-19.71 21.24-24 3.13-1.34 6.68-2.1 9.09-4.51 1.6-1.62 2.72-4 4.9-4.61 2.48-.74 5 1.11 7.62.89 4-.34 5.92-5.74 4.32-9.46s-5.31-6-8.79-8.06c4.56 2.94 11.69-1.58 11-7-.54-4-4.48-6.9-8.49-7.56s-8.07.4-12 1.45l12-2.8.09-10.05c-17.29-4.88-37.26 2-47.9 16.47l14.63-15.38c-7.05-4.63-17-2.26-23.22 3.49s-9.28 14.05-11.37 22.22a30.66 30.66 0 0 1 -2.87 8.26c-1.61 2.7-4.08 4.75-6.5 6.75l-25.14 20.74c-5.22 4.3-12.76 8.73-18.15 4.63" fill="#fff"/><path d="m379.45 539.13c21.37 2.31 44.78 4.16 62.6-7.87 8.95-6 15.46-15 21.48-23.95q9.21-13.72 17.45-28.06c5.43-9.44 11.23-19.72 21.24-24 3.13-1.34 6.68-2.09 9.08-4.51 1.61-1.61 2.72-4 4.91-4.61 2.47-.74 5 1.11 7.61.9 4-.34 5.92-5.74 4.32-9.46s-5.3-6-8.79-8.07c4.57 2.95 11.7-1.57 11-7-.54-4-4.48-6.91-8.49-7.57s-8.08.4-12 1.45l11.95-2.8.1-10c-17.29-4.88-37.27 2-47.9 16.47l14.73-15.47c-7.06-4.63-17-2.25-23.22 3.49s-9.28 14.05-11.37 22.23c-.73 2.84-1.38 5.75-2.88 8.26-1.6 2.7-4.07 4.75-6.5 6.75l-25.14 20.69c-5.22 4.31-12.76 8.74-18.15 4.64" fill="#f7cebf"/><path d="m394.11 531.06c14.82 2.32 29.7 4.14 44.61 1.43 15.35-2.8 27.2-11.67 36.54-23.88 10.34-13.53 18.56-28.51 27.25-43.11 3.66-6.15 7.85-12.61 14.21-16.26 3-1.7 6.42-2.42 9.39-4.14s4.81-6 8.25-5.76 5.84 1.44 8.92-.7a10 10 0 0 0 4-6.65c1.36-7.57-5.14-12.48-10.88-15.9l-3.49 6c7.19 3.66 17.19-1.75 16.1-10.4-1.53-12.17-16.2-11.21-24.76-8.94-4.24 1.12-2.45 7.56 1.81 6.56l11.94-2.86a3.44 3.44 0 0 0 2.49-3.26l.08-10.05a3.41 3.41 0 0 0 -2.47-3.25 49.49 49.49 0 0 0 -51.7 18c-2.33 3.06 2.69 6.8 5.28 4.08l14.73-15.47a3.4 3.4 0 0 0 -.68-5.28c-7.27-4.27-16.18-3.48-23.24.92-7.89 4.92-12.29 13.61-15 22.22-1.66 5.28-2.21 10.87-6.25 15s-8.8 7.44-13.17 11c-4.68 3.87-9.34 7.76-14 11.59-4 3.26-10.22 8.71-15.55 5.33-3.66-2.32-7 3.49-3.39 5.8 7.7 4.89 16-.17 22.22-5.16 9.23-7.42 18.77-14.8 27.54-22.77 7.74-7 7.57-17.45 12-26.38 4.52-9.12 15.11-17.89 25.5-11.78l-.68-5.28-14.73 15.46 5.27 4.08c10.14-13.3 28-19.17 44.11-14.92l-2.48-3.25-.11 10.05 2.49-3.27-12 2.79 1.81 6.56c4.38-1.16 10-2.92 14 .12s.81 9-3.63 6.7c-3.94-2-7.32 3.66-3.49 6 2.75 1.64 9.62 5.38 7.33 9.64-1.4 2.61-7.56-.29-10.51 1-3.69 1.56-5.3 5.44-9 7.14-3 1.36-6.07 2.18-8.87 4-6.39 4.1-11 10.34-14.93 16.71-4.71 7.59-9.05 15.4-13.84 22.94-9.65 15.19-19.71 32.21-37.34 38.93-16.13 6.15-34.06 4.9-51 3.92-2.7-.16-3.39 4.36-.65 4.79z" fill="#1a1c3f"/><path d="m289.42 439a500.62 500.62 0 0 1 2.41-106.18c1.27-9.75 3.52-20.6 11.7-26.06 3.42-2.28 7.51-3.31 11.54-4.16a173.38 173.38 0 0 1 31.7-3.69c7.45-.18 16.08.72 20.25 6.9 7.39 11-5.36 29.13 4.51 38a15.49 15.49 0 0 1 3.07 2.86c1.43 2.22.66 5.14-.13 7.66a323.11 323.11 0 0 0 -14.47 86.08" fill="#fff"/><path d="m277.15 439a501.28 501.28 0 0 1 2.41-106.18c1.27-9.75 3.52-20.6 11.7-26.06 3.42-2.28 7.52-3.31 11.55-4.16a173.17 173.17 0 0 1 31.69-3.69c7.45-.18 16.08.72 20.25 6.9 7.4 11-5.35 29.13 4.51 38a15.49 15.49 0 0 1 3.07 2.86c1.43 2.22.66 5.14-.13 7.66a323.11 323.11 0 0 0 -14.45 86.1" fill="#f7cebf"/><path d="m372.26 308.6a175.7 175.7 0 0 1 -29.05 6.94c-.55 5.4-1.26 11.19-4.87 15.25a7.47 7.47 0 0 0 -1.62 2.18 5.55 5.55 0 0 0 -.26 1.91l-.16 6.84c.23-4.71-4.56-8.89-9.23-8.27s-8.17 5.64-7.4 10.28a10.06 10.06 0 0 0 10.15 8 136.66 136.66 0 0 1 -7.82 43.12 5.22 5.22 0 0 1 -5.14 4.27 398.06 398.06 0 0 1 -57.5 6.45 3.84 3.84 0 0 1 -2.28-.39 3.66 3.66 0 0 1 -1.25-2.36 34 34 0 0 1 7.64-29.55c1.43-1.61 3.07-3.18 3.62-5.26.71-2.75-.68-5.54-1.3-8.3a15.71 15.71 0 0 1 2.59-12.5c2.79-3.84 7.45-6.61 8.44-11.25.77-3.56-.91-7.23-.59-10.86.51-5.73 8.4-8.61 12.21-12.93 4.3-4.88 6.06-9.12 11.1-13.25 6.21-5.1 16.83-2.87 24.34 0 3 1.12 6.12-4.68 7.87-6.33 6.49-6.11 16.14-5.73 24.15-3.37 7.62 2.24 18.29 6.74 20.63 15.16.67 2.42-.44 5.52-2.89 6.08" fill="#4747e2"/><path d="m367 305.84c-4.17-6.18-12.8-7.08-20.25-6.9a173.38 173.38 0 0 0 -31.7 3.69c-4 .85-8.12 1.88-11.54 4.16-8.18 5.46-10.43 16.31-11.7 26.06a500.44 500.44 0 0 0 -4.11 70.6q14.67-1.62 29.18-4.33a5.22 5.22 0 0 0 5.14-4.27 136.66 136.66 0 0 0 7.78-43.13 10.06 10.06 0 0 1 -10.15-8c-.77-4.64 2.73-9.65 7.4-10.28s9.46 3.56 9.23 8.27c.05-2.28.11-4.56.16-6.84a5.55 5.55 0 0 1 .26-1.91 7.47 7.47 0 0 1 1.62-2.18c3.61-4.06 4.32-9.85 4.87-15.25a176.24 176.24 0 0 0 25.57-5.83 13.37 13.37 0 0 0 -1.76-3.86z" fill="#34c6a0"/><g fill="#1a1c3f"><path d="m291.44 439c-1.2-25-1.56-49.84.17-74.81.83-11.83 1.74-23.84 3.83-35.52 1.79-10 5.43-18.93 15.92-22 11.27-3.35 23.7-4.47 35.41-4.68 9.8-.19 19.83 2.15 19.65 13.78-.11 7.42-3 14.92-1.39 22.34a15.13 15.13 0 0 0 4.37 7.82c2.06 2 3.3 2.93 2.62 6-.71 3.28-2 6.53-2.88 9.76a330.55 330.55 0 0 0 -12.14 78.72c-.12 3.83 5.83 3.83 6 0a323.24 323.24 0 0 1 12.72-79.83c1.34-4.57 4-10.05 1.79-14.75-2.07-4.33-6.32-5.28-6.83-10.7-.79-8.33 3.05-16.48 1.35-24.84-1.81-8.93-9.62-13.15-18.1-14.11-11.76-1.33-24.42.6-36 2.77-10.37 1.95-19.51 5.07-24.36 15.17-4.61 9.59-5.11 21.05-6.15 31.45-3.12 31-3.62 62.52 0 93.46.29 2.52 4.17 2.65 4 0z"/><path d="m357.15 341.86a1.74 1.74 0 0 0 .85-.19 1.68 1.68 0 0 0 .71-.46 1.65 1.65 0 0 0 .46-.71 1.68 1.68 0 0 0 .19-.85l-.08-.59a2.12 2.12 0 0 0 -.57-1l-.44-.34a2.33 2.33 0 0 0 -1.12-.31 1.67 1.67 0 0 0 -.85.2 1.63 1.63 0 0 0 -.71.45 1.65 1.65 0 0 0 -.46.71 1.7 1.7 0 0 0 -.19.86l.08.58a2.21 2.21 0 0 0 .57 1l.45.34a2.26 2.26 0 0 0 1.11.31z"/><path d="m353 329.68a12.78 12.78 0 0 0 8.1-2.11 2 2 0 1 0 -2.45-3.17 9 9 0 0 1 -5.65 1.93c-2.18 0-2.12 3.17 0 3.35z"/><path d="m362 361.75a6.52 6.52 0 0 0 -7.85 1.25 2.62 2.62 0 0 0 0 3.62 2.58 2.58 0 0 0 3.61 0 3.17 3.17 0 0 1 2.71-1.25 2 2 0 0 0 2.34-1.14 2 2 0 0 0 -.81-2.48z"/></g><path d="m371.8 306.94a181.8 181.8 0 0 1 -28.59 5.62 3.1 3.1 0 0 0 -3 3c-.66 5.64-1.84 9.88-5.05 14.54-2.33 3.36-1.66 7.72-1.75 11.64h5.74c-.46-10-12.67-15-19.49-7.18-7.36 8.44.05 19.76 10.14 20.08l-2.9-2.9a135.29 135.29 0 0 1 -5.53 35.35c-.74 2.47-1.28 6.13-3.17 7.9s-5.27 1.77-7.84 2.2q-10.06 1.69-20.2 2.88-8.62 1-17.29 1.61-3.84.27-7.7.48c-3.75.19-6.15 1.49-6.67-2.71a31.59 31.59 0 0 1 1.62-14.33c1.8-5.15 5.16-8.37 8.15-12.74 2.7-3.95 1.88-7.42.9-11.8-1.5-6.67.72-10.73 5.28-15.47 2.54-2.65 4.85-5.4 5.46-9.13.85-5.2-2.49-10.34 1.95-14.46 2.77-2.57 6.2-4.34 8.79-7.13 3.55-3.81 5.93-8.6 9.82-12.11s9.25-3.66 14.32-2.71c3.52.66 7.72 3.28 11.3 2.46 3.77-.86 5.38-4.74 7.93-7.17 4.2-4 10.48-4.48 15.94-3.67a45.9 45.9 0 0 1 13.73 4.48c1.94 1 14.31 9.41 8.32 12-3.87 1.66-.54 7.34 3.31 5.67 11.39-4.95.13-18.25-6-22-8.46-5.1-19.83-8.41-29.64-6.28a20.38 20.38 0 0 0 -11.33 6.68 22 22 0 0 1 -2.27 2.81c-1.69 1.37-.4 1.15-2.59.84-3.1-.43-6.12-1.85-9.29-2.29-4.66-.64-9.71-.57-14 1.67-5.78 3-8.86 9-12.83 13.89-3.3 4-8.26 6.18-11.54 10.2-3.71 4.54-2.09 8.71-1.9 14 .24 6.49-7 9.9-9.63 15.31s-1.73 10.11-.47 15.65c1 4.54-2.49 6.91-4.91 10.21a36 36 0 0 0 -4.09 7.26 36.61 36.61 0 0 0 -2.85 17c.36 4.44 1 9.65 6.21 10.37 3.42.48 7.39-.26 10.83-.48q5.77-.37 11.55-.92 12.9-1.21 25.72-3.25c5.3-.84 14.09-.6 17.44-5.62 1.83-2.75 2.55-6.66 3.45-9.78q1.8-6.17 3-12.48a148.76 148.76 0 0 0 2.52-24.47 2.93 2.93 0 0 0 -2.9-2.89c-4.82-.15-9.49-5-6.36-9.76a5.36 5.36 0 0 1 10 2.65c.17 3.67 5.65 3.71 5.74 0 .06-2.54-.34-5.55.69-7.87.93-2.09 2.75-3.73 3.74-5.87 1.8-3.91 2.19-8.2 2.58-12.44l-2.19 2.93a185.71 185.71 0 0 0 28.71-8.16c2-.76 1.26-3.9-.91-3.31z" fill="#4747e2"/><path d="m366.84 427.45a184.75 184.75 0 0 0 -86.07-12.54c-1.82.17-3.76.42-5.15 1.6-3 2.58-1.62 7.38-1.42 11.35.36 7.25-3.84-6.3-16 5.81-34.83 34.8-41.92 84.92-78.41 114.86-8.65 7.09-17.38 4.75-19 17-4 29.74 11.8 63.79 33 78.54 34.89 24.29 76.08 40.34 118.6 43.55 30.89 2.33 66.35-9.57 63-51.91-1.91-24.27-13.16-43.71-6.62-84.73 7-43.91 27.84-71.19 6.14-101.31-4.79-6.64-10.81-14.88-7-22.12" fill="#ef6348"/><path d="m367.68 426a181.72 181.72 0 0 0 -48.57-13.77 169.4 169.4 0 0 0 -27.39-1.34c-5.83.17-15.66-.9-19.62 4.51-1.61 2.21-1.89 5-1.75 7.63a28.63 28.63 0 0 0 .42 4.83c.05.23-.11.78 0 1 .82 1.29 3-3.17 3.64-2-1.45-2.45-7.82-1.91-9.89-1.3-6.29 1.85-11 7.9-15.1 12.67a160.42 160.42 0 0 0 -12.88 17.36c-15.88 24.57-25.77 53-44.49 75.76-4.54 5.52-9.63 11.13-15.47 15.31-4.44 3.18-10.21 4.24-14.27 8-4.53 4.14-5.18 10.38-5.54 16.16a84.78 84.78 0 0 0 1.52 21.15 96.52 96.52 0 0 0 17 38.94c8.82 11.91 20.64 19.82 33.26 27.31 28.34 16.8 59.93 28.32 92.66 32.46 22 2.77 47.49 2 64.55-14.21 17.86-17 14.4-42 9.67-63.8-2.69-12.39-4.92-24.73-4.95-37.46 0-16.84 3.27-33.32 7.69-49.49 6.71-24.57 16.77-51 1.81-74.63-3.68-5.82-12.4-14.15-9.09-21.7 1.73-4-4.09-7.43-5.87-3.43-5.93 13.31 7.21 23.55 12.24 34.69 4.93 10.94 4.28 22.88 1.81 34.34-2.9 13.45-7.49 26.47-10.68 39.84-3.56 14.91-5.77 30.27-5.26 45.63.38 11.39 2.42 22.57 4.75 33.7 2.27 10.84 4.74 21.95 3.52 33.09-2.46 22.49-21.66 34.19-42.64 36.3-13.07 1.32-26.42-.48-39.25-2.91a239.93 239.93 0 0 1 -44.69-13.07 250.81 250.81 0 0 1 -42.69-22.31c-11.74-7.61-20.81-16.77-27.52-29.14a87.64 87.64 0 0 1 -10.9-40.12c-.09-6-.57-14.17 5.3-17.59 4.71-2.74 9.57-4.32 13.86-7.86 20.9-17.22 32.66-42.38 44.9-65.88 6.48-12.44 13.28-24.8 21.85-36 4.08-5.31 9.1-12.5 15.07-15.79 3.61-2 4.67-.08 8 .57 3.48.69 5-2.24 5-5.23s-2-7.74 1.28-9.62c1.3-.76 4-.52 5.48-.64 2.44-.19 4.87-.33 7.31-.42a204.87 204.87 0 0 1 51 4.81 180.82 180.82 0 0 1 23.71 6.72c1.77.64 3-2.3 1.29-3.06z" fill="#ef6348"/><g fill="#1a1c3f"><path d="m197.16 557.71c47.77.53 95.16 20.1 131 54.08 9.41 8.93 18.16 19 23.9 31 4.67 9.77 7.21 20.52 9.56 31.21a1183.16 1183.16 0 0 1 27.65 258.44c0 5.06.31 10.95 4.17 13.86 4.13 3.11 10.6 1.2 13.39 7a10.08 10.08 0 0 1 .14 8c-2 5.15-6.72 7.92-11.35 10-11.79 5.27-22.78 3.7-35.51 2.51-25.64-2.41-46.22 3.38-49.68-32.67-1.72-18-2.45-31.71-7.93-49.28-12.18-39.09-30.64-82.14-27.41-124.31.64-8.39 1.78-16.93.14-25.17-1.69-8.46-6.17-15.92-10.57-23.17-22.7-37.39-46.3-77.73-45.65-122.36.21-14.12-3.56-26-12-36.75"/><path d="m197.16 559.42a195.88 195.88 0 0 1 133.84 59.14c12.89 13.44 20.87 28.44 25.33 46.44 9.16 37.14 15.4 75.25 20.24 113.17s7.9 76.12 9 114.35q.42 14.58.48 29.18c0 7-1.18 15.36 1.63 22 2.65 6.26 7.55 6.27 13.1 8.43 5.25 2 3.95 8.28.71 11.66-2.82 3-7.16 4.76-11 6-13.82 4.44-29.47.64-43.69 0-8.65-.4-19.2-.43-25.64-7.18-9.36-9.81-7.93-27.26-9.3-39.69-1.86-16.86-6.37-32.6-11.72-48.64-11.28-33.76-24.24-68.72-22-104.91.53-8.69 1.85-17.37.45-26.05-1.29-7.95-5-15.19-9-22-8.74-14.79-17.82-29.34-25.62-44.67-8-15.76-14.83-32.24-18.67-49.56a132.26 132.26 0 0 1 -3.16-25.77c-.17-8-.19-15.66-2.46-23.37a59.44 59.44 0 0 0 -10-19.35c-2.42-3.15-7.86 0-5.41 3.16a54.49 54.49 0 0 1 10.46 22.24c1.78 8.8.8 17.87 1.65 26.77 1.68 17.73 6.81 34.83 13.74 51.17 7 16.55 15.82 32.27 25 47.7 4.53 7.6 9.62 15 13.39 23.06 4.33 9.23 4.62 18.51 3.82 28.51a186.17 186.17 0 0 0 3.76 55.4c4 18.45 10.06 36.37 16.05 54.25 5.83 17.43 11.32 34.46 13.31 52.82 1.44 13.33.61 29.41 8.91 40.79 5.61 7.68 14.4 10.23 23.46 11.17 5.51.58 11.06.64 16.59 1 7.92.47 15.81 1.75 23.76 1.57 12.1-.27 34.24-6.08 32.61-22.19-.69-6.71-5.62-9.34-11.5-10.79-4.26-1.05-6.06-3.16-6.66-7.56-.63-4.58-.25-9.37-.27-14a1194.45 1194.45 0 0 0 -25.35-239.12c-3.78-18-7.28-36.59-17.52-52.26-9.35-14.3-22.4-26.15-35.93-36.43a196.45 196.45 0 0 0 -91.8-38.14 190.86 190.86 0 0 0 -24.59-1.72c-2.21 0-2.21 3.37 0 3.42z"/><path d="m197.16 557.71c-26.4 31.78-37.41 94.4-40.19 143.21-1.23 21.62-.89 44-8.15 64-6 16.51-16.68 30.21-25.54 45a215.42 215.42 0 0 0 -21.66 49.63c-4.08 13.85-7.23 29-16.65 39-4.56 4.86-10.77 9-11.8 15.93-.74 5 1.49 9.82 3.92 14a126.27 126.27 0 0 0 22 27.64c11 10.58 24.39 19.8 38.8 18.7a12.86 12.86 0 0 0 7.4-2.52c7.6-6.26 2.09-19.5 2.18-30.08.12-15.41 13.12-26 24-35.44 54-46.8 82.32-121.39 103.35-194.29 12.09-41.93 25.6-80.5 20.08-124.14"/><path d="m195.73 556.28c-17.06 20-25.7 46-31.68 71.18-6.84 28.91-9.62 58.34-11 87.95-.79 17-1.83 34.28-8 50.3-5.94 15.36-16.22 28.53-24.64 42.55a219 219 0 0 0 -20.71 46c-4.55 14.28-6.85 31.15-17.66 42.37-4.53 4.71-10.13 8.86-11.91 15.49-1.86 7 1.38 13.78 4.88 19.62a125.91 125.91 0 0 0 30.74 34.58c9.86 7.6 25.75 16 38.46 10.42 13.37-5.9 6.59-23 6.44-33.78-.22-14.68 12.43-24.72 22.54-33.46a228.28 228.28 0 0 0 30.25-31.83c18.25-23.24 32.46-49.36 44.15-76.44 12.18-28.23 21.79-57.48 30.38-87 9.5-32.67 20.55-65.54 21.64-99.85a171.26 171.26 0 0 0 -1.18-26c-.53-4.43-7.57-4.48-7 0 4 33.2-3.2 65.39-12.33 97.14-8.42 29.28-16.75 58.62-27.33 87.21-10.08 27.26-22.09 54-37.63 78.58a258.25 258.25 0 0 1 -25.14 33.79c-9.08 10.22-19.53 18.69-29.33 28.15-8.66 8.36-15.8 18.63-15.23 31.16.28 6.39 2.34 12.92 1.65 19.32-1 9.55-11.93 8.75-19 6.71-14.5-4.17-26.4-16.36-35.82-27.62-5-6-10.11-12.78-13.18-20-3.74-8.82 1.44-13.92 7.35-19.72 9.86-9.67 13.89-22.64 17.54-35.61 4.44-15.8 9.93-31.11 17.56-45.68 7.15-13.66 16.41-26 23.88-39.48 7.55-13.61 11.7-28 13.5-43.44 1.78-15.26 1.73-30.67 2.84-46q1.5-20.77 4.8-41.36c4.25-26.42 10.69-53.57 23.37-77.34a102.37 102.37 0 0 1 9.71-15.07c1.57-2-1.14-4.87-2.85-2.86z"/></g><g fill="#34c6a0"><path d="m235.87 683.83c11.22 16.18 22 33.11 30.15 51.07 1.1 2.43 4.62.63 4.11-1.73-.89-4.21-3.28-8-5.38-11.7q-3.86-6.86-8-13.52c-5.54-8.92-11.62-17.47-18-25.81-1.27-1.67-4.14-.12-2.89 1.69z"/><path d="m186.41 612.7c5.86 1.28 12.57 1.44 18.55 1.46 2.81 0 2.67-4 0-4.27-5.79-.63-12.28-1.23-18.08-.63-1.82.19-2.55 3-.47 3.44z"/><path d="m258.24 619.22a330.72 330.72 0 0 1 33.62 4.28c2.62.44 3.78-3.49 1.11-4a237 237 0 0 0 -34.73-4.13c-2.5-.13-2.48 3.72 0 3.89z"/></g><path d="m319.39 429.48c7.68-4.33 17.2-2.71 25.84-1 13.9 2.81 27.38 7.4 40.53 12.65 6.43 2.57 12.79 5.31 19.12 8.11 5.38 2.37 12.63 4.13 16 9.37 3 4.69 2.47 10.72 1.84 16.24-1.19 10.43-2.43 20.92-5.48 31s-8.07 19.71-15.82 26.79a12.66 12.66 0 0 1 -4 2.71c-7.86 2.95-21.47-.15-29.45-1.66-19.2-3.64-40.43-11.65-48.78-30.87-3.1-7.14-4-15-4.76-22.76" fill="#ef6348"/><path d="m319.86 431.17c9.89-4 20.13-1.47 30.1 1a237.4 237.4 0 0 1 29.86 9.8c9.4 3.72 18.49 8.13 27.84 12 3.6 1.47 8 3 10.23 6.43 2.73 4.15 1.8 9.88 1.26 14.51-2.15 18.88-5.15 41.76-20.46 55.09-6.3 5.46-18 2.26-25.3.84a135.31 135.31 0 0 1 -22.59-5.93c-8.41-3.2-16.46-8-22.27-14.93-7.49-9-8.39-19.88-10.26-30.94-.76-4.47-8.07-3.41-7.88 1.07.48 11.25 2.63 23 9.28 32.33 5.41 7.59 13.1 13.25 21.49 17.16 8.58 4 17.65 6.35 26.93 8.11s19.89 4.5 29.15 1.75 15.84-13.93 19.57-22.07c4.82-10.53 6.93-21.82 8.36-33.24 1.19-9.55 4.15-22.22-3.58-29.89-2.84-2.83-6.58-4.45-10.25-5.9-5.36-2.13-10.68-4.37-16-6.55-13.15-5.39-26.56-10.3-40.39-13.68-11.24-2.75-25.84-6.73-36.42-.11-1.6 1-.57 4 1.35 3.2z" fill="#ef6348"/><path d="m174 563.44c16.93-5.16 36.52-1.88 53.57 1.19 17.71 3.2 33.9 10.29 51 15.49 2.54.77 4.35-3.23 1.85-4.39a212.62 212.62 0 0 0 -54.24-17c-17.27-2.88-36.5-5.63-53.22 1-2.26.9-1.41 4.49 1 3.75z" fill="#1a1c3f"/><path d="m333.16 518.6a442.25 442.25 0 0 1 39.41 20.09c3.64 2.06 6.94-3.62 3.27-5.61a264.77 264.77 0 0 0 -41.33-17.68c-1.85-.63-3.18 2.4-1.35 3.2z" fill="#1a1c3f"/><path d="m262.17 424.72c-16.65 12.4-26.76 30.32-36.5 48.24-1.47 2.72 2.66 5.14 4.15 2.43 9.52-17.25 19.42-34.78 34.61-47.74 1.59-1.36-.56-4.2-2.26-2.93z" fill="#eab642"/><g fill="#1a1c3f"><path d="m229.72 379.27c6.54 5 11 13 19.5 15 3 .71 4.88-3.41 2.12-5-6.87-4-12.58-9.74-19.86-13a1.75 1.75 0 0 0 -1.76 3z"/><path d="m702.89 117.84a.16.16 0 0 1 0-.07l-.26.33h.06l-.34.26-.4.17h.11l-.45.06h.08l-.46-.07h.16l-.42-.18a.41.41 0 0 1 .11.07l-.36-.28a.38.38 0 0 1 .09.09l-.28-.37a.27.27 0 0 1 .06.12l-.18-.45a.29.29 0 0 1 0 .09l-.07-.5a.74.74 0 0 1 0 .21l.07-.5a4.5 4.5 0 0 1 -.14.49l.2-.46-.17.34a2 2 0 0 0 -.2 1.49 2 2 0 0 0 .89 1.16 2 2 0 0 0 2.66-.69 3.09 3.09 0 0 0 .46-2.27 2.31 2.31 0 0 0 -2.94-1.71 2 2 0 0 0 -1.42 1.88 1.64 1.64 0 0 0 3 .83z"/><path d="m727.07 111.89a.3.3 0 0 1 0-.08l-.26.34.06-.05-.34.26-.4.17h.11l-.45.06h.08l-.46-.06h.16l-.42-.18a.41.41 0 0 1 .11.07l-.36-.28a.76.76 0 0 1 .09.09l-.28-.37a.3.3 0 0 1 .06.11l-.18-.44a.29.29 0 0 1 0 .09l-.07-.5a.74.74 0 0 1 0 .21l.07-.51a4.1 4.1 0 0 1 -.14.5l.2-.47a3.65 3.65 0 0 1 -.18.34 2.06 2.06 0 0 0 -.19 1.5 2 2 0 0 0 .89 1.16 2 2 0 0 0 2.66-.7 3.11 3.11 0 0 0 .46-2.26 2.35 2.35 0 0 0 -1.15-1.53 2.33 2.33 0 0 0 -1.79-.18 2 2 0 0 0 -1.42 1.88 1.66 1.66 0 0 0 1.2 1.58 1.68 1.68 0 0 0 1.85-.75z"/><path d="m695.78 112.09a8.27 8.27 0 0 1 1.69-1.42 11.92 11.92 0 0 1 2.7-.84c3-.71 1.72-5.45-1.28-4.63a10.59 10.59 0 0 0 -4.41 2.06 4.08 4.08 0 0 0 -1.56 4.08 1.73 1.73 0 0 0 2.86.75z"/><path d="m728.66 98c-3.14-2.25-9.31-1-12.34 1-2.45 1.53-.91 6 2 4.88a37.64 37.64 0 0 1 5.25-1.86c1.69-.36 3.47-.39 5-1.09 1.26-.56.9-2.24 0-2.89z"/><path d="m707.33 111.87a21.9 21.9 0 0 1 1.08 5.3c.05 2.19-.71 2.69-2.18 3.93a4.25 4.25 0 0 0 -1.55 4.14c.6 3.56 4.38 8 8.1 5.47 2.05-1.38.82-5.22-1.8-4.25-.91.34-1.31-1.27-1.23-1.81.17-1.09.39-.66 1-1.37a5.72 5.72 0 0 0 1.74-2.79c.62-3-.68-6.81-1.64-9.59-.75-2.21-4.16-1.32-3.52 1z"/><path d="m720.32 141.37c1.7-1.07 3.15-.94 5-.42 2.79.79 4.07-2.93 1.88-4.46-2.86-2-7.3-1.05-9.47 1.52-1.48 1.75.41 4.74 2.6 3.36z"/></g><path d="m740.83 84.37c-17.48.21-34.36-4.47-48.53-14.87-1.77-1.31-4.4.45-4.33 2.49.27 8.38.72 17.8-5.44 24.35-1.75 1.87-4.09 3.6-4.3 6.36-.2 2.54 1.42 5.19 2.78 7.2l4.61-3.55c-4-5-10.15-7.36-15-11.37-7.69-6.35-3.93-15.89 1-22.83 5.14-7.29 12-13.27 19.28-18.36 6.93-4.86 14.85-10.66 23.12-12.85 5.44-1.44 9-.21 13.89 2.09 3.44 1.62 5.71-.39 9.22-.43 8.43-.08 16.82 8.54 21.63 14.71s10.31 15.69 9.56 23.88c-.4 4.33-2.81 8.27-4.18 12.34a69 69 0 0 0 -2.86 13l4.42-2.53c-3.73-2.19-1.53-9.7-2.88-13.37a8.3 8.3 0 0 0 -7.06-5.54c-9.81-1-12.42 9.78-12.87 17.3l5-2.06a41.43 41.43 0 0 1 -9.69-14c-1.42-3.4-7-1.91-5.6 1.54a48.46 48.46 0 0 0 11.17 16.58 2.94 2.94 0 0 0 5-2.06c.24-3.81.35-9.78 4.74-11.25 4.79-1.6 4.24 5 4.32 7.72.12 4.15 1.2 8 5 10.22 2.12 1.23 4.14-.42 4.42-2.54a60.73 60.73 0 0 1 3.15-13.14c1.43-3.88 3.49-7.61 3.82-11.81.55-7-2.64-14.38-5.94-20.37-6-10.87-19.58-26.43-33.56-24.25-2.11.33-3.56.67-5.74-.12-1.51-.54-2.85-1.4-4.44-1.82a23.27 23.27 0 0 0 -10.54-.03c-7.47 1.54-14.2 6-20.52 10.1-12.45 8-26.28 18.35-31.84 32.59-2.68 6.84-2.47 14.51 2.87 20 5 5.12 12.36 7.27 16.92 12.86 2.1 2.56 6.47-.81 4.61-3.56-1.23-1.81-2.33-2.84-.87-5 .75-1.12 2.06-2 2.92-3.07a23.46 23.46 0 0 0 3.91-7.19c2.18-6.28 2.07-13.19 1.73-19.74l-4.34 2.48c15.12 10.69 33.48 15.8 51.9 13.27 1.93-.27 1.43-3.39-.46-3.37z" fill="#ef6348"/><path d="m770 199.43-35.24 33.5c-14.85 14.12-30.67 28.79-50.59 33.64-21.76 5.3-44.34-2.05-66.65-4-4.43-.4-9.59-.28-12.4 3.17-1 1.2-1.61 2.75-3 3.51-1.77 1-4 .22-6 .51-3.85.54-6 4.69-7.18 8.39a77.47 77.47 0 0 0 -3.79 26.44c.17 5.63 2.68 12.84 8.32 12.66.23 5.83 4.39 10.93 9.43 13.86s10.9 4.08 16.63 5.15q24.19 4.51 48.51 8.26c16.45 2.54 33.19 4.81 49.69 2.59 38.15-5.15 68.75-33.06 96.1-60.15 2.73-2.71 5.65-6.71 3.66-10" fill="#1a1c3f"/><path d="m768.78 198.24c-15 13.26-29.62 27-44.5 40.37-13.71 12.34-29 23.7-47.87 26-20.1 2.45-39.7-4.08-59.6-5.41a21.92 21.92 0 0 0 -9.52 1.07 11.54 11.54 0 0 0 -3.62 2.19c-1.32 1.21-2.12 3.29-3.72 3.88s-3.63 0-5.32.38a9.49 9.49 0 0 0 -3.48 1.77c-2.62 2-4.08 5.09-5.18 8.14-3.73 10.29-10.89 42.78 7.49 43.93l-3.33-3.33c1.8 18.9 23.33 21.33 38.18 24 20.41 3.69 41 7.65 61.68 9.5 18.56 1.65 36.77-.19 54.07-7.32 15.61-6.42 29.6-16 42.58-26.65 7.65-6.31 14.87-13.09 22.11-19.86 5.45-5.09 16-12.3 12.6-21a4 4 0 1 0 -7.35 3.1c1.58 3.48-11.47 14.07-13.84 16.33-5.36 5.15-10.88 10.15-16.57 14.94-11.36 9.57-23.61 18.26-37.08 24.62a101.88 101.88 0 0 1 -46 9.69c-17.76-.38-35.49-3.82-53-6.75-9.92-1.67-19.86-3.33-29.73-5.29-8.46-1.68-20.05-5-21-15.29a3.43 3.43 0 0 0 -3.32-3.32c-7.07-.43-5.07-15.81-4.6-20.06a72.65 72.65 0 0 1 2.71-13.14 19.65 19.65 0 0 1 2.08-5.19c1.68-2.56 3.58-2.32 6.32-2.51a8.25 8.25 0 0 0 6.35-3.38c2.7-3.15 4.88-4.07 9.13-3.92 9.12.32 18.23 2.33 27.24 3.71 16.12 2.46 32.8 4.13 48.47-1.55 14-5.09 25.87-14.49 36.75-24.47 14.91-13.69 29.09-28.31 43.23-42.79 1.52-1.55-.76-3.78-2.36-2.37z" fill="#1a1c3f"/><g fill="#34c6a0"><path d="m238.32 56.47c1.47 34.72 5.2 69.35 10 103.75q1.81 13.07 3.9 26.09c.67 4.18 1.35 8.36 2.07 12.53.52 3 1 6.26 3.5 8.26 4.9 3.87 13.13.11 18.38-1.21 8.62-2.17 17.24-4.38 25.87-6.57l25.87-6.56c6-1.52 13.93-2.51 15.92-9.51 1.89-6.62-2.29-14.92-4.15-21.12l-7.68-25.49c-2.55-8.48-4.81-17.13-7.69-25.5-1.69-4.9-5.34-9.82-11.19-7.7-2.81 1-4.88 3.64-6.85 5.75q-4.41 4.69-8.62 9.59c-5 5.76-9.93 11.66-14.3 17.89-5.57 8-3.22 15.17-.57 23.82q4.23 13.77 9 27.37a575 575 0 0 0 21.34 53.64c1.94 4.15 9.23 1.16 7.48-3.15-10.77-26.41-21.17-52.85-29.58-80.13-1-3.32-2.79-7.16-2.95-10.66-.13-3.09 1.84-5.51 3.56-7.85 4.49-6.15 9.41-12 14.43-17.73q3-3.47 6.19-6.82c.41-.44 2.83-3.63 3.43-3.56-.32 0 1.61 3.31.53 1.78 1.76 2.49 2.28 7.43 3.18 10.37l3.76 12.25c4.16 13.55 9.38 27.17 12.56 41 1 4.09-.26 5.45-4.16 6.62-3.15.94-6.39 1.65-9.57 2.48l-23 6-20.1 5.21c-3.5.91-7 1.82-10.51 2.78a18.23 18.23 0 0 1 -3.81 1 1.84 1.84 0 0 1 -2.81-.86c-.24-1.08-.46-2.17-.64-3.26-2.67-14.06-4.95-28.2-7.08-42.34-4.89-32.59-8.24-65.34-11.25-98.15-.26-2.83-4.62-2.93-4.5 0z"/><path d="m368.72 216c.38 9.21 5.62 19.05 9.23 27.43 4.13 9.58 8.44 19.39 13.87 28.32 2.27 3.72 7.73.46 5.8-3.39-4.43-8.85-9.34-17.41-13.5-26.4q-3.12-6.72-6-13.53c-1.91-4.47-3.35-9.34-6.27-13.28-.9-1.22-3.19-1-3.12.85z"/><path d="m445.35 165-13.08 24.2-6.54 12.12c-1.81 3.36-5 7.33-5.77 11.08-1.49 7.6 8.32 7.18 13 7.26a126.21 126.21 0 0 0 26.09-2.41l-5.6-4.27a190.45 190.45 0 0 1 -3.51 19c-1.32 5.58-4.12 11.67-4.09 17.4 0 4.35 5.41 5.28 7.69 2.08 3.58-5 4.51-12.87 5.75-18.83 1.34-6.48 2.29-13 3-19.61.33-3-3.09-4.81-5.61-4.27a124.74 124.74 0 0 1 -16.31 2.5q-3.71.3-7.43.37c-1.2 0-5.93.7-6.75-.16l1.11 2.67c-.28-3.34 3.92-9.13 5.38-12.09l5.67-11.49 11.35-23c1.44-2.93-2.84-5.5-4.41-2.58z"/><path d="m531.05 169.53q-6.3 17.82-13.2 35.43-3.37 8.58-6.88 17.1c-2.41 5.83-5.82 11.82-7.22 18a3.45 3.45 0 0 0 6.28 2.65c3.19-5 4.88-11.38 7-16.94q3.42-9 6.69-18.15 6.54-18.21 12.41-36.65c1-3.26-4-4.57-5.08-1.4z"/><path d="m578.29 155.09c7.81 16.84 16.27 33.53 23.42 50.65l4.07-4.07c-11.12-2.21-22-4.15-32.86-7.65a3.62 3.62 0 0 0 -4.42 4.42 169.76 169.76 0 0 0 12.31 30.29c2.2 4.14 8.36.49 6.27-3.67a189.14 189.14 0 0 1 -11.66-28.53l-4.42 4.47c10.92 3.4 22.44 6.41 33.89 7.22 2.6.18 4-2.92 2.86-5-9.07-16.46-17-33.68-25.38-50.48-1.38-2.75-5.35-.34-4.09 2.38z"/><path d="m658.13 211.28c-8.79 8.09-15.53 18.53-23.6 27.34-3.06 3.34 2.32 7.65 5 3.84 6.82-9.78 15.53-18.63 21.49-29a1.84 1.84 0 0 0 -2.87-2.22z"/></g><path d="m48.56 977.06c54.56 2.24 109.31 1.92 163.91 2s109.28-.13 163.92-.39c30.65-.15 61.32.05 92-.51 4-.07 4-6.19 0-6.26-54.62-1-109.3-.59-163.92-.86s-109.28 0-163.92.28c-30.65.18-61.33.39-91.95 1.65a2.06 2.06 0 0 0 0 4.12z" fill="#1a1c3f"/><path d="m951.44 745.77c-55.75-2.23-111.67-1.92-167.46-2q-84.24-.07-168.46.39c-31.56.15-63.14-.05-94.7.51-4 .07-4 6.19 0 6.26 55.8 1 111.66.59 167.47.85 56.15.27 112.3.06 168.46-.27 31.56-.18 63.15-.39 94.69-1.65a2.06 2.06 0 0 0 0-4.12z" fill="#1a1c3f"/><g fill="#4747e2"><path d="m744.92 221.19c6.68-5.77 12.27-13.39 18.38-19.79s11.27-12.8 20.07-14.77c3.12-.71 2.51-6.1-.77-5.7-9.21 1.11-14.8 7.24-20.6 13.9-6.65 7.63-14.65 15.54-19.71 24.33a1.68 1.68 0 0 0 2.63 2z"/><path d="m825 273c-4.87 12-16.93 19.39-25.36 28.7a2.29 2.29 0 0 0 3.24 3.24 200.11 200.11 0 0 0 15.7-15.67c4.2-4.57 7.75-9.44 9.87-15.32.79-2.19-2.6-3-3.45-.95z"/></g></svg>